<svg width="10" height="10" viewBox="0 0 10 10" fill="none" xmlns="http://www.w3.org/2000/svg">
<path d="M9.49987 4.57371C9.49987 6.81423 7.63966 8.64938 5.32147 8.64938C3.00328 8.64938 1.14307 6.81423 1.14307 4.57371C1.14307 2.33319 3.00328 0.498047 5.32147 0.498047C7.63966 0.498047 9.49987 2.33319 9.49987 4.57371Z" stroke="white"/>
<path d="M5.45382 7.68691V5.04503H6.38384L6.52208 4.01065H5.45382V3.35179C5.45382 3.0533 5.5406 2.84894 5.98761 2.84894H6.55404V1.92673C6.27844 1.89843 6.00142 1.88476 5.72425 1.8858C4.90219 1.8858 4.33779 2.36672 4.33779 3.24961V4.00871H3.41382V5.04309H4.33981V7.68691H5.45382Z" fill="white"/>
</svg>
