<svg width="68" height="68" fill="none" xmlns="http://www.w3.org/2000/svg"><circle cx="34" cy="34" r="34" fill="#E9E9EC"/><path d="M45.296 39.707H23.389a3.203 3.203 0 0 0-2.28-3.08V21.774a3.08 3.08 0 0 0 2.136-2.145H33.51a3.172 3.172 0 0 0 2.145 2.145v4.794l-1.92 1.93-1.026-1.026a.901.901 0 0 0-1.283 0 .912.912 0 0 0 0 1.293l1.026 1.027-1.026 1.026a.915.915 0 0 0 .641 1.561.904.904 0 0 0 .642-.267l1.026-1.027 2.187 2.187a.903.903 0 0 0 1.283 0l2.269-2.197 1.026 1.026a.913.913 0 1 0 1.284-1.293l-1.027-1.026 1.027-1.027a.913.913 0 0 0-.99-1.492.905.905 0 0 0-.294.198l-1.026 1.027-1.91-1.92v-4.794a3.194 3.194 0 1 0-3.972-3.973H23.327a3.192 3.192 0 1 0-4.045 3.973v14.875a3.203 3.203 0 0 0-2.279 3.08v.821a.257.257 0 0 0 0 .082v5.482a6.395 6.395 0 0 0 6.386 6.365h21.907a6.386 6.386 0 0 0 0-12.77ZM38.11 29.78l-1.5 1.55-1.529-1.55 1.53-1.54 1.499 1.54Zm7.186 19.043a2.741 2.741 0 1 1 2.73-2.73 2.73 2.73 0 0 1-2.73 2.73Zm-24.638-2.73a2.742 2.742 0 1 1 5.483-.02 2.742 2.742 0 0 1-5.483.02Zm20.07 0a2.741 2.741 0 1 1-5.483 0 2.741 2.741 0 0 1 5.482 0Zm-7.3 0a2.74 2.74 0 1 1-5.481 0 2.74 2.74 0 0 1 5.481 0Z" fill="#0B7572"/><path d="M23.389 47.007a.914.914 0 1 0 0-1.827.914.914 0 0 0 0 1.827ZM30.688 47.007a.914.914 0 1 0 0-1.827.914.914 0 0 0 0 1.827ZM37.996 47.007a.914.914 0 1 0 0-1.827.914.914 0 0 0 0 1.827ZM45.295 47.007a.914.914 0 1 0 0-1.827.914.914 0 0 0 0 1.827Z" fill="#0B7572"/></svg>