<svg width="68" height="68" fill="none" xmlns="http://www.w3.org/2000/svg"><circle cx="34" cy="34" r="34" fill="#E9E9EC"/><path d="m24.95 42.394 15.211 6.356V33.267l-15.211-5.65v14.777ZM51.844 34.299l-4.238 1.52v-4.29l-5.595 1.955V48.75l15.754-6.357V27.888l-5.921 2.119v4.292ZM46.79 45.273l-.651.271v-3.422l.651-.218v3.369Zm1.141-.435-.652.272v-3.423l.652-.217v3.368Zm2.282-.924-.652.218v-3.368l.652-.218v3.368Zm1.14-.488-.651.271v-3.314l.652-.217v3.26Zm2.283-4.184.651-.217v3.205l-.651.272v-3.26Zm-1.304.49.652-.218v3.26l-.652.271v-3.314ZM51.842 27.889l5.922-2.174-16.407-5.758-5.27 1.847 15.755 5.976v.108ZM31.415 23.434l-6.465 2.281 16.407 5.976 6.193-2.227-16.135-6.03ZM8.87 40.981h13.473v-2.716H10.12L8.87 40.98ZM11.099 36.2h11.245v-2.716h-9.996l-1.25 2.717ZM13.325 31.256v.218h9.018v-2.717H14.52l-1.195 2.5Z" fill="#0B7572"/></svg>