<svg width="10" height="10" viewBox="0 0 10 10" fill="none" xmlns="http://www.w3.org/2000/svg">
<path d="M9.2445 4.57371C9.2445 6.81423 7.38429 8.64938 5.0661 8.64938C2.74791 8.64938 0.887695 6.81423 0.887695 4.57371C0.887695 2.33319 2.74791 0.498047 5.0661 0.498047C7.38429 0.498047 9.2445 2.33319 9.2445 4.57371Z" stroke="white"/>
<path fill-rule="evenodd" clip-rule="evenodd" d="M4.26264 1.90121C4.54958 1.88856 4.64107 1.88574 5.372 1.88574C6.10293 1.88574 6.19442 1.88879 6.48112 1.90121C6.76781 1.91364 6.96351 1.95748 7.13475 2.02101C7.31406 2.08594 7.47673 2.18745 7.61127 2.31873C7.74826 2.44743 7.85394 2.60309 7.92145 2.77516C7.98799 2.93926 8.03349 3.1268 8.0467 3.40108C8.05991 3.67653 8.06284 3.76421 8.06284 4.46444C8.06284 5.16491 8.05966 5.25259 8.0467 5.52757C8.03373 5.80185 7.98799 5.98939 7.92145 6.15349C7.85394 6.32558 7.74808 6.4815 7.61127 6.61039C7.47673 6.74167 7.31406 6.84294 7.13475 6.90765C6.96351 6.97141 6.76781 7.01501 6.48161 7.02767C6.19442 7.04033 6.10293 7.04314 5.372 7.04314C4.64107 7.04314 4.54958 7.0401 4.26264 7.02767C3.97643 7.01525 3.78073 6.97141 3.60949 6.90765C3.42992 6.84293 3.26722 6.7415 3.13273 6.61039C2.99583 6.48161 2.88989 6.32577 2.8223 6.15373C2.75601 5.98963 2.71051 5.80209 2.6973 5.52781C2.68409 5.25235 2.68115 5.16468 2.68115 4.46444C2.68115 3.76397 2.68433 3.6763 2.6973 3.40155C2.71026 3.1268 2.75601 2.93926 2.8223 2.77516C2.88999 2.60311 2.99601 2.44727 3.13297 2.3185C3.26728 2.18733 3.42981 2.08581 3.60925 2.02101C3.78049 1.95748 3.97618 1.91387 4.26239 1.90121H4.26264ZM6.45934 2.36538C6.17558 2.35296 6.09045 2.35038 5.372 2.35038C4.65354 2.35038 4.56841 2.35296 4.28465 2.36538C4.02217 2.37687 3.8798 2.41883 3.78489 2.45423C3.6594 2.50111 3.56962 2.55667 3.47544 2.64693C3.38617 2.73016 3.31746 2.83149 3.27436 2.94348C3.23742 3.03444 3.19364 3.17087 3.18165 3.42241C3.16868 3.69435 3.16599 3.77593 3.16599 4.46444C3.16599 5.15296 3.16868 5.23454 3.18165 5.50647C3.19364 5.75801 3.23742 5.89445 3.27436 5.98541C3.31742 6.09723 3.38615 6.19874 3.47544 6.28196C3.56228 6.36752 3.6682 6.4334 3.78489 6.47466C3.8798 6.51006 4.02217 6.55202 4.28465 6.56351C4.56841 6.57593 4.6533 6.57851 5.372 6.57851C6.0907 6.57851 6.17558 6.57593 6.45934 6.56351C6.72182 6.55202 6.8642 6.51006 6.95911 6.47466C7.0846 6.42777 7.17438 6.37221 7.26856 6.28196C7.35784 6.19874 7.42658 6.09723 7.46964 5.98541C7.50657 5.89445 7.55036 5.75801 7.56235 5.50647C7.57531 5.23454 7.578 5.15296 7.578 4.46444C7.578 3.77593 7.57531 3.69435 7.56235 3.42241C7.55036 3.17087 7.50657 3.03444 7.46964 2.94348C7.42071 2.82322 7.36274 2.73718 7.26856 2.64693C7.1817 2.56138 7.07597 2.49554 6.95911 2.45423C6.8642 2.41883 6.72182 2.37687 6.45934 2.36538ZM5.0283 5.25939C5.22025 5.33596 5.43398 5.34629 5.63299 5.28862C5.83201 5.23096 6.00395 5.10886 6.11947 4.9432C6.23498 4.77754 6.2869 4.57858 6.26635 4.38031C6.2458 4.18204 6.15406 3.99675 6.00679 3.8561C5.91292 3.7662 5.79941 3.69735 5.67443 3.65453C5.54946 3.61171 5.41614 3.59597 5.28406 3.60846C5.15198 3.62094 5.02443 3.66134 4.91059 3.72673C4.79676 3.79212 4.69947 3.88089 4.62573 3.98665C4.55199 4.0924 4.50364 4.2125 4.48415 4.33831C4.46466 4.46412 4.47452 4.59251 4.51302 4.71423C4.55152 4.83595 4.6177 4.94798 4.7068 5.04224C4.7959 5.13651 4.90571 5.21067 5.0283 5.25939ZM4.394 3.5272C4.52243 3.40412 4.6749 3.30649 4.84271 3.23988C5.01051 3.17327 5.19037 3.13898 5.372 3.13898C5.55363 3.13898 5.73348 3.17327 5.90129 3.23988C6.06909 3.30649 6.22157 3.40412 6.35 3.5272C6.47843 3.65028 6.58031 3.7964 6.64982 3.95721C6.71932 4.11802 6.7551 4.29038 6.7551 4.46444C6.7551 4.6385 6.71932 4.81086 6.64982 4.97167C6.58031 5.13249 6.47843 5.2786 6.35 5.40168C6.09062 5.65026 5.73882 5.7899 5.372 5.7899C5.00518 5.7899 4.65338 5.65026 4.394 5.40168C4.13462 5.15311 3.9889 4.81598 3.9889 4.46444C3.9889 4.11291 4.13462 3.77577 4.394 3.5272ZM7.06185 3.33638C7.09368 3.30761 7.11916 3.27301 7.13678 3.23463C7.1544 3.19625 7.16381 3.15488 7.16445 3.11295C7.16509 3.07103 7.15694 3.02941 7.14049 2.99055C7.12404 2.9517 7.09963 2.9164 7.06869 2.88676C7.03775 2.85711 7.00092 2.83371 6.96038 2.81795C6.91984 2.80218 6.8764 2.79438 6.83266 2.79499C6.78891 2.7956 6.74573 2.80462 6.70569 2.8215C6.66564 2.83839 6.62954 2.86281 6.59951 2.89331C6.54112 2.95263 6.50916 3.03142 6.5104 3.11295C6.51164 3.19449 6.54599 3.27235 6.60616 3.33001C6.66633 3.38767 6.74757 3.42059 6.83266 3.42178C6.91774 3.42297 6.99995 3.39233 7.06185 3.33638Z" fill="white"/>
</svg>
