<svg width="58" height="15" fill="none" xmlns="http://www.w3.org/2000/svg"><path d="M.383 13.998v-13h2.334v11.117H8.5v1.883H.383Zm17.926.233c-1.345 0-2.467-.272-3.367-.816-.889-.556-1.555-1.34-2-2.35-.433-1.011-.65-2.2-.65-3.567 0-1.378.217-2.567.65-3.567.445-1.01 1.111-1.789 2-2.333.9-.556 2.022-.833 3.367-.833 1.366 0 2.494.277 3.383.833.89.544 1.55 1.322 1.983 2.333.445 1 .667 2.19.667 3.567 0 1.367-.222 2.556-.666 3.567-.434 1.01-1.095 1.794-1.984 2.35-.889.544-2.017.816-3.383.816Zm0-1.8c1.244 0 2.161-.427 2.75-1.283.589-.867.883-2.083.883-3.65 0-1.567-.294-2.778-.883-3.633-.589-.867-1.506-1.3-2.75-1.3-1.233 0-2.145.433-2.734 1.3-.588.855-.883 2.066-.883 3.633 0 1.567.295 2.783.883 3.65.59.856 1.5 1.283 2.734 1.283Zm16.042 1.8c-1.211 0-2.233-.283-3.067-.85-.833-.566-1.466-1.36-1.9-2.383-.433-1.022-.65-2.2-.65-3.533 0-1.356.217-2.534.65-3.534.445-1.01 1.106-1.789 1.984-2.333.889-.556 1.989-.833 3.3-.833 1.089 0 2.01.189 2.766.566.756.378 1.35.911 1.784 1.6.433.678.71 1.478.833 2.4h-2.267c-.133-.889-.466-1.572-1-2.05-.533-.477-1.255-.716-2.166-.716-1.2 0-2.09.433-2.667 1.3-.578.866-.867 2.066-.867 3.6 0 1.589.306 2.822.917 3.7.611.866 1.506 1.3 2.683 1.3.99 0 1.756-.29 2.3-.867.556-.589.861-1.394.917-2.417h-3.95V7.415h6.117v6.583H38.3v-1.55h-.4c-.233.478-.628.894-1.183 1.25-.545.356-1.334.533-2.367.533Zm16.686 0c-1.344 0-2.467-.272-3.367-.816-.889-.556-1.555-1.34-2-2.35-.433-1.011-.65-2.2-.65-3.567 0-1.378.217-2.567.65-3.567.445-1.01 1.111-1.789 2-2.333.9-.556 2.023-.833 3.367-.833 1.367 0 2.494.277 3.383.833.89.544 1.55 1.322 1.984 2.333.444 1 .666 2.19.666 3.567 0 1.367-.222 2.556-.666 3.567-.434 1.01-1.095 1.794-1.984 2.35-.889.544-2.016.816-3.383.816Zm0-1.8c1.244 0 2.161-.427 2.75-1.283.589-.867.883-2.083.883-3.65 0-1.567-.294-2.778-.883-3.633-.589-.867-1.506-1.3-2.75-1.3-1.233 0-2.145.433-2.733 1.3-.59.855-.884 2.066-.884 3.633 0 1.567.295 2.783.884 3.65.588.856 1.5 1.283 2.733 1.283Z" fill="#fff"/></svg>