<svg width="90" height="88" fill="none" xmlns="http://www.w3.org/2000/svg"><ellipse cx="45.261" cy="44" rx="44.442" ry="44" fill="#E9E9EC"/><path fill-rule="evenodd" clip-rule="evenodd" d="M25.58 31.912a23.962 23.962 0 0 0-4.762 14.368c0 5.38 1.769 10.349 4.763 14.368 2.717-.991 5.743-1.783 8.993-2.331.383-.063.767-.127 1.15-.18-.745-3.544-1.16-7.574-1.16-11.846 0-1.973.084-3.893.255-5.74l-.82 1.32-5.818-9.083a41.565 41.565 0 0 1-2.6-.865v-.01ZM34.84 59.889c-2.951.496-5.71 1.203-8.193 2.078.639.75 1.32 1.456 2.056 2.11a24.408 24.408 0 0 0 12.381 6.045c-1.363-1.361-2.578-3.365-3.57-5.876-.543-1.372-1.022-2.901-1.438-4.557-.415.063-.83.126-1.236.2ZM37.706 59.477a34.16 34.16 0 0 0 1.332 4.189c1.662 4.209 3.868 6.814 6.233 6.814 2.366 0 4.571-2.605 6.233-6.815a34.16 34.16 0 0 0 1.332-4.188 64.764 64.764 0 0 0-7.554-.443c-2.61 0-5.136.148-7.555.444h-.02ZM36.193 46.27c0 4.21.416 8.176 1.151 11.625a66.535 66.535 0 0 1 15.855 0c.735-3.46 1.15-7.416 1.15-11.625s-.415-8.175-1.15-11.625a66.11 66.11 0 0 1-14.8.116l-.991 1.593-.544.876c-.436 2.795-.67 5.844-.67 9.05v-.01ZM39.336 33.242c1.918.18 3.9.264 5.925.264 2.61 0 5.135-.148 7.554-.444a34.16 34.16 0 0 0-1.332-4.188c-1.662-4.209-3.867-6.814-6.233-6.814-.703 0-1.396.232-2.067.675.032.2.053.411.064.622v.042c0 .021 0 .053.01.074.011.106.022.211.022.317v.401c0 1.856-.778 3.903-1.758 5.475l-2.206 3.565.021.01ZM53.007 28.294c.544 1.371 1.023 2.901 1.439 4.557.415-.063.83-.126 1.236-.2 2.951-.496 5.71-1.203 8.194-2.078a24.261 24.261 0 0 0-2.057-2.12 24.541 24.541 0 0 0-12.37-6.046c1.363 1.361 2.578 3.366 3.569 5.876l-.01.01ZM54.798 34.423c.745 3.545 1.161 7.575 1.161 11.847 0 4.272-.416 8.302-1.161 11.847.383.053.767.116 1.15.18 3.25.548 6.276 1.339 8.993 2.33a23.962 23.962 0 0 0 4.763-14.368c0-5.38-1.769-10.348-4.763-14.368-2.717.992-5.743 1.783-8.993 2.332-.383.063-.767.126-1.15.18v.02ZM54.446 59.699a34.943 34.943 0 0 1-1.439 4.557c-.99 2.5-2.195 4.515-3.57 5.876a24.415 24.415 0 0 0 14.428-8.165c-2.483-.875-5.242-1.572-8.194-2.078-.405-.074-.82-.137-1.236-.2l.01.01ZM36.449 25.414a3.675 3.675 0 0 1-2.59 1.066 3.63 3.63 0 0 1-2.589-1.066 3.602 3.602 0 0 1-1.076-2.563c0-1.002.405-1.91 1.076-2.564a3.674 3.674 0 0 1 2.59-1.065c1.012 0 1.928.4 2.589 1.065a3.602 3.602 0 0 1 1.076 2.564c0 1.002-.405 1.909-1.076 2.563Zm-.362 10-.064.096.064-.095Zm5.562-11.91v.022-.021ZM28.35 18.737a7.664 7.664 0 0 0-2.29 5.465c0 1.297.713 3.101 1.757 5.053.01.01.021.021.043.032a.738.738 0 0 1 .138.179l.704 1.097c.01.01.01.021.02.032l5.275 8.228 1.13-1.814c.021-.032.042-.074.064-.106l.852-1.371.064-.106 4.08-6.582c.906-1.804 1.514-3.44 1.514-4.631v-.327c0-.064-.01-.148-.021-.254 0-.02 0-.042-.011-.074v-.02a7.691 7.691 0 0 0-2.259-4.769 7.819 7.819 0 0 0-5.52-2.268 7.819 7.819 0 0 0-5.519 2.268l-.021-.032Z" fill="#0B7572"/></svg>