<svg width="90" height="88" fill="none" xmlns="http://www.w3.org/2000/svg"><ellipse cx="44.624" cy="44" rx="44.624" ry="44" fill="#E9E9EC"/><path fill-rule="evenodd" clip-rule="evenodd" d="M67.181 30.625H22.078c-.545 0-1.049.219-1.412.577a1.94 1.94 0 0 0-.585 1.392v31.763c0 .537.222 1.034.585 1.392.363.358.857.577 1.412.577h45.103c.545 0 1.049-.219 1.402-.577a1.94 1.94 0 0 0 .585-1.392V32.594c0-.537-.222-1.034-.585-1.392a1.989 1.989 0 0 0-1.402-.577ZM45.568 51.28v10.203a.936.936 0 0 1-.938.925.936.936 0 0 1-.939-.925V51.28a2.527 2.527 0 0 1-1.633-2.357c0-1.402 1.15-2.536 2.572-2.536 1.422 0 2.571 1.134 2.571 2.536a2.527 2.527 0 0 1-1.633 2.357Z" fill="#0B7572"/><path fill-rule="evenodd" clip-rule="evenodd" d="M64.65 34.543c-.162-5.21-2.37-9.915-5.86-13.355A20.123 20.123 0 0 0 44.63 15.4c-5.528 0-10.54 2.208-14.16 5.788-3.49 3.44-5.7 8.144-5.86 13.355h40.04Zm-4.247-3.63a15.906 15.906 0 0 0-4.215-7.15 16.403 16.403 0 0 0-11.559-4.723c-4.357 0-8.482 1.69-11.558 4.723a15.958 15.958 0 0 0-4.216 7.15h31.548Z" fill="#0B7572"/></svg>