<svg width="92" height="88" fill="none" xmlns="http://www.w3.org/2000/svg"><ellipse cx="46.284" cy="44" rx="45.465" ry="44" fill="#E9E9EC"/><path fill-rule="evenodd" clip-rule="evenodd" d="M32.12 30.293c3.625-3.507 8.636-5.681 14.164-5.681 5.529 0 10.54 2.174 14.164 5.681C64.07 33.8 66.318 38.65 66.318 44c0 5.35-2.246 10.2-5.87 13.707-3.624 3.507-8.635 5.681-14.164 5.681-5.528 0-10.54-2.174-14.163-5.68C28.497 54.2 26.25 49.35 26.25 44s2.246-10.2 5.87-13.707ZM71.29 44c0-6.683-2.803-12.733-7.326-17.11-4.522-4.377-10.774-7.09-17.68-7.09-6.906 0-13.157 2.713-17.68 7.09C24.082 31.267 21.28 37.317 21.28 44s2.803 12.733 7.325 17.11c4.523 4.377 10.774 7.09 17.68 7.09 6.906 0 13.158-2.713 17.68-7.09C68.487 56.733 71.29 50.683 71.29 44Z" fill="#0B7572"/><path fill-rule="evenodd" clip-rule="evenodd" d="M40.502 38.489c0-1.72.625-3.11 1.885-4.17.84-.718 2.09-1.152 3.74-1.313v-1.153h1.476v1.153c1.445.132 2.598.548 3.448 1.229 1.094.87 1.748 2.08 1.963 3.61l-2.579.379c-.146-.945-.449-1.673-.918-2.174-.459-.501-1.104-.841-1.914-1.002v6.957c1.25.303 2.09.549 2.49.719.772.33 1.407.728 1.895 1.2.489.473.87 1.04 1.134 1.692.263.653.4 1.362.4 2.118 0 1.673-.557 3.063-1.65 4.188-1.095 1.125-2.52 1.72-4.27 1.796v2.439h-1.474v-2.41c-1.25-.152-2.257-.426-3.038-.814-.781-.388-1.455-1.02-2.022-1.881-.566-.87-.899-1.928-.986-3.176l2.51-.454c.195 1.295.537 2.25 1.026 2.855.703.86 1.543 1.333 2.52 1.437v-7.676c-1.026-.19-2.071-.577-3.146-1.154-.79-.434-1.406-1.02-1.836-1.786-.43-.756-.645-1.617-.645-2.59l-.01-.02Zm24.146 5.51c0-4.905-2.052-9.348-5.382-12.562-3.322-3.214-7.912-5.209-12.982-5.209-5.07 0-9.66 1.985-12.981 5.209C29.982 34.65 27.92 39.094 27.92 44c0 4.906 2.05 9.349 5.382 12.563 3.32 3.214 7.912 5.209 12.981 5.209 5.07 0 9.66-1.985 12.982-5.209 3.32-3.214 5.382-7.657 5.382-12.563Z" fill="#0B7572"/><path fill-rule="evenodd" clip-rule="evenodd" d="M46.128 41.693V35.02c-.967.141-1.739.52-2.295 1.124a3.086 3.086 0 0 0-.84 2.165c0 .823.234 1.513.713 2.061.478.558 1.28 1.002 2.412 1.323h.01ZM50.944 47.885c0-.87-.225-1.579-.675-2.108-.449-.53-1.347-1.011-2.686-1.427v7.345c.967-.114 1.768-.52 2.403-1.22s.948-1.56.948-2.59h.01Z" fill="#0B7572"/></svg>